<svg width="126" height="29" viewBox="0 0 126 29" fill="none" xmlns="http://www.w3.org/2000/svg">
<path d="M0.248928 17.0342C-0.284508 18.0014 0.0671454 19.218 1.03437 19.7514L16.7962 28.4442C17.7634 28.9777 18.9799 28.626 19.5134 27.6588C20.0468 26.6916 19.6951 25.4751 18.7279 24.9416L4.71742 17.2146L12.4444 3.20416C12.9778 2.23694 12.6262 1.02041 11.659 0.486975C10.6917 -0.0464612 9.47521 0.305192 8.94178 1.27241L0.248928 17.0342ZM123.834 13.1143C108.229 18.6279 96.9277 20.3835 87.7797 20.2676C78.6338 20.1517 71.5179 18.168 64.1668 16C56.8214 13.8336 49.2124 11.4722 39.3961 10.8638C29.5658 10.2546 17.6186 11.4035 1.44485 16.0788L2.55563 19.9214C18.3819 15.3466 29.8641 14.2808 39.1487 14.8562C48.4474 15.4325 55.6388 17.6552 63.0353 19.8366C70.4263 22.0164 77.9938 24.144 87.729 24.2673C97.462 24.3906 109.239 22.5132 125.167 16.8858L123.834 13.1143Z" fill="white"/>
</svg>
