<svg width="113" height="47" viewBox="0 0 113 47" fill="none" xmlns="http://www.w3.org/2000/svg">
	<path
		d="M0 45.5962V8.82268H5.63465L6.00535 15.4212C7.19159 13.0981 8.89682 11.2693 11.121 9.93478C13.3452 8.60026 15.866 7.933 18.6833 7.933C23.0329 7.933 26.4927 9.26752 29.0629 11.9366C31.6826 14.5562 32.9924 18.6092 32.9924 24.0956V45.5962H26.7646V24.7628C26.7646 17.1017 23.6013 13.2711 17.2747 13.2711C14.1113 13.2711 11.467 14.4326 9.34166 16.7557C7.26573 19.0293 6.22777 22.2915 6.22777 26.5422V45.5962H0Z"
		fill="white" />
	<path
		d="M49.6936 46.4859C46.1843 46.4859 43.0704 45.6951 40.3519 44.1134C37.6335 42.4823 35.4834 40.2334 33.9017 37.3666C32.3695 34.4999 31.6034 31.1142 31.6034 27.2094C31.6034 23.3541 32.3695 19.9931 33.9017 17.1264C35.434 14.2102 37.5593 11.9613 40.2778 10.3796C43.0457 8.74854 46.2337 7.933 49.8419 7.933C53.4006 7.933 56.465 8.74854 59.0352 10.3796C61.6549 11.9613 63.6567 14.0619 65.0406 16.6815C66.4246 19.3012 67.1165 22.1185 67.1165 25.1335C67.1165 25.6772 67.0918 26.2209 67.0424 26.7646C67.0424 27.3083 67.0424 27.9261 67.0424 28.6181H37.757C37.9053 31.4354 38.5479 33.7832 39.6847 35.6614C40.8709 37.4902 42.329 38.8742 44.0589 39.8133C45.8383 40.7524 47.7165 41.2219 49.6936 41.2219C52.2638 41.2219 54.4138 40.6288 56.1438 39.4426C57.8737 38.2563 59.1341 36.65 59.9249 34.6235H66.0786C65.09 38.0339 63.1871 40.8759 60.3698 43.1496C57.6019 45.3738 54.0431 46.4859 49.6936 46.4859ZM49.6936 13.1969C46.728 13.1969 44.0837 14.1113 41.7606 15.9401C39.487 17.7195 38.1772 20.3391 37.8312 23.799H60.9629C60.8146 20.4874 59.6778 17.8925 57.5524 16.0143C55.4271 14.1361 52.8075 13.1969 49.6936 13.1969Z"
		fill="white" />
	<path
		d="M80.1901 46.4859C75.7911 46.4859 72.1335 45.3738 69.2173 43.1496C66.3012 40.9254 64.5738 38.4293 64.0795 34.6235H70.2888C70.6842 36.5511 71.8864 37.7126 73.5175 39.146C75.198 40.53 77.4469 41.2219 80.2642 41.2219C82.8839 41.2219 84.8115 40.6782 86.0472 39.5908C87.2828 38.454 87.9007 37.1195 87.9007 35.5873C87.9007 33.3631 87.0851 31.8803 85.454 31.1389C83.8724 30.3975 81.6235 29.7302 78.7073 29.1371C76.7302 28.7417 74.7531 28.1733 72.7761 27.4319C70.799 26.6905 69.1432 25.6525 67.8087 24.318C66.4742 22.934 65.8069 21.1299 65.8069 18.9057C65.8069 15.693 66.9931 13.0734 69.3656 11.0469C71.7875 8.97096 75.0497 7.933 79.1521 7.933C83.0568 7.933 86.2449 8.92153 88.7162 10.8986C91.237 12.8262 92.6951 15.5941 93.0905 19.2023H86.9368C86.6897 17.3241 85.8742 15.866 84.4902 14.828C83.1557 13.7406 81.3516 13.1969 79.078 13.1969C76.8538 13.1969 75.1238 13.6665 73.8882 14.6056C72.7019 15.5447 72.1088 16.7804 72.1088 18.3126C72.1088 19.7954 72.8749 20.957 74.4072 21.7972C75.9888 22.6375 78.1142 23.3541 80.7832 23.9473C83.0568 24.4415 85.2069 25.0594 87.2334 25.8008C89.3093 26.4927 90.9898 27.5554 92.2749 28.9888C93.6095 30.3728 94.2767 32.3993 94.2767 35.0683C94.3261 38.3799 93.0658 41.1231 90.4956 43.2979C87.9748 45.4232 84.5396 46.4859 80.1901 46.4859Z"
		fill="white" />
	<path
		d="M106.772 45.5962C103.411 45.5962 100.767 44.7807 98.8392 43.1496C96.9116 41.5185 95.9478 38.5776 95.9478 34.3269V14.0866H89.5717V8.82268H95.9478L96.7633 0H102.176V8.82268H113V14.0866H102.176V34.3269C102.176 36.65 102.645 38.2316 103.584 39.0719C104.523 39.8627 106.179 40.2581 108.552 40.2581H112.407V45.5962H106.772Z"
		fill="white" />
</svg>